<?xml version="1.0" encoding="utf-8"?>
<!-- Generator: Adobe Illustrator 18.1.1, SVG Export Plug-In . SVG Version: 6.00 Build 0)  -->
<svg version="1.1" id="Слой_1" xmlns="http://www.w3.org/2000/svg" xmlns:xlink="http://www.w3.org/1999/xlink" x="0px" y="0px"
	 viewBox="0 0 50 51.375" enable-background="new 0 0 50 51.375" xml:space="preserve">
<g>
	<path fill="none" d="M24.999,9.055c-9.172,0-16.633,7.461-16.633,16.631c0,9.174,7.461,16.633,16.633,16.633
		c9.171,0,16.631-7.459,16.633-16.633C41.632,16.516,34.171,9.055,24.999,9.055z M20.943,32.13h-1.992
		c-0.036,0-0.065-0.024-0.073-0.058l-0.594-2.705c-0.026-0.116-0.132-0.205-0.255-0.205h-1.99c-0.121,0-0.229,0.089-0.255,0.205
		l-0.594,2.705c-0.008,0.035-0.039,0.058-0.074,0.058h-1.976c-0.023,0-0.047-0.011-0.057-0.024
		c-0.016-0.019-0.022-0.044-0.016-0.066l3.022-13.838c0.008-0.034,0.039-0.058,0.073-0.058h1.74c0.036,0,0.066,0.024,0.074,0.06
		l3.006,13.748c0.005,0.023,0.023,0.082,0.034,0.103C21.019,32.098,20.985,32.13,20.943,32.13z M27.718,25.045
		c0.265,0.2,0.423,0.429,0.55,0.642c0.408,0.716,0.408,1.119,0.408,1.782v1.05c0,0.555,0,2.032-1.219,2.948
		c-0.392,0.303-1.126,0.666-2.392,0.666h-3.005c-0.042,0-0.076-0.035-0.076-0.077V18.221c0-0.044,0.034-0.077,0.076-0.077h2.666
		c1.118,0,2.01,0.232,2.653,0.687c1.298,0.924,1.298,2.492,1.298,3.243c0,0.977-0.094,1.587-0.615,2.206
		c-0.1,0.124-0.216,0.242-0.352,0.353c-0.061,0.053-0.097,0.129-0.095,0.208C27.618,24.921,27.656,24.995,27.718,25.045z
		 M36.865,28.282c0,1.363-0.345,2.471-0.971,3.116c-0.573,0.594-1.526,0.931-2.622,0.931c-1.235,0-2.266-0.452-2.834-1.242
		c-0.579-0.779-0.642-1.921-0.642-2.372v-0.455c0-0.04,0.034-0.074,0.074-0.074h1.977c0.042,0,0.076,0.034,0.076,0.074v0.376
		c0,0.36,0.052,0.86,0.303,1.182c0.228,0.281,0.573,0.421,1.024,0.421c0.542,0,0.94-0.158,1.189-0.466
		c0.298-0.379,0.298-1.011,0.298-1.314v-0.514c0-0.435-0.053-1.029-0.302-1.377c-0.255-0.35-0.75-0.529-0.915-0.587l-1.44-0.515
		c-0.844-0.303-1.484-0.692-1.865-1.585c-0.279-0.637-0.303-1.331-0.303-2.043V21.44c0-1.035,0.373-1.969,1.05-2.624
		c0.605-0.587,1.405-0.871,2.447-0.871c2.082,0,3.376,1.4,3.376,3.653v0.453c0,0.042-0.036,0.076-0.076,0.076h-1.977
		c-0.042,0-0.076-0.034-0.076-0.076v-0.376c0-0.202,0-0.818-0.321-1.219c-0.147-0.184-0.413-0.424-0.985-0.424
		c-0.373,0-0.681,0.118-0.921,0.356c-0.342,0.36-0.389,0.884-0.389,1.347c0,0.463,0.081,1.071,0.302,1.395
		c0.208,0.319,0.587,0.474,0.881,0.59l1.205,0.434c0.61,0.226,1.303,0.481,1.83,1.214c0.561,0.768,0.608,1.626,0.608,2.434h-0.002
		V28.282z"/>
	<path fill="none" d="M24.964,20.071h-0.592c-0.144,0-0.261,0.118-0.261,0.261v3.282c0,0.142,0.118,0.26,0.261,0.26h0.611
		c0.698,0,1.056-0.305,1.205-0.484c0.223-0.255,0.363-0.703,0.363-1.14V21.4c0-0.319-0.132-0.656-0.365-0.905
		C25.909,20.218,25.486,20.071,24.964,20.071z"/>
	<path fill="none" d="M26.549,27.608c0-0.634-0.085-1.098-0.515-1.471c-0.295-0.239-0.574-0.332-0.992-0.332h-0.671
		c-0.144,0-0.261,0.116-0.261,0.261v3.876c0,0.145,0.118,0.261,0.261,0.261h0.553c0.573,0,1.003-0.197,1.284-0.579
		c0.221-0.3,0.342-0.785,0.342-1.364h-0.002V27.608z"/>
	<path fill="none" d="M17.001,23.532c-0.126,0-0.232,0.089-0.256,0.211l-0.626,3.2c-0.013,0.077,0.006,0.156,0.055,0.216
		c0.05,0.061,0.124,0.097,0.203,0.097h1.274c0.079,0,0.153-0.039,0.202-0.097c0.052-0.058,0.071-0.14,0.055-0.216l-0.65-3.203
		C17.232,23.619,17.125,23.532,17.001,23.532z"/>
	<path d="M17.979,18.203c-0.008-0.035-0.039-0.06-0.074-0.06h-1.74c-0.034,0-0.064,0.024-0.073,0.058L13.069,32.04
		c-0.006,0.023,0,0.047,0.016,0.066c0.01,0.013,0.034,0.024,0.057,0.024h1.976c0.035,0,0.066-0.023,0.074-0.058l0.594-2.705
		c0.026-0.116,0.134-0.205,0.255-0.205h1.99c0.123,0,0.229,0.089,0.255,0.205l0.594,2.705c0.008,0.034,0.037,0.058,0.073,0.058
		h1.992c0.042,0,0.076-0.032,0.076-0.076c-0.011-0.021-0.029-0.081-0.034-0.103L17.979,18.203z M17.853,27.159
		c-0.048,0.058-0.123,0.097-0.202,0.097h-1.274c-0.079,0-0.153-0.035-0.203-0.097c-0.048-0.06-0.068-0.139-0.055-0.216l0.626-3.2
		c0.024-0.123,0.131-0.211,0.256-0.211c0.124,0,0.231,0.087,0.256,0.208l0.65,3.203C17.924,27.019,17.904,27.101,17.853,27.159z"/>
	<path d="M28.064,24.28c0.521-0.619,0.615-1.229,0.615-2.206c0-0.752,0-2.319-1.298-3.243c-0.644-0.455-1.535-0.687-2.653-0.687
		h-2.666c-0.042,0-0.076,0.034-0.076,0.077v13.835c0,0.042,0.034,0.077,0.076,0.077h3.005c1.266,0,2-0.363,2.392-0.666
		c1.219-0.916,1.219-2.393,1.219-2.948v-1.05c0-0.663,0-1.066-0.408-1.782c-0.127-0.213-0.285-0.442-0.55-0.642
		c-0.063-0.05-0.1-0.124-0.102-0.203c-0.002-0.079,0.034-0.155,0.095-0.208C27.847,24.522,27.964,24.405,28.064,24.28z
		 M26.209,29.624c-0.281,0.382-0.711,0.579-1.284,0.579h-0.553c-0.144,0-0.261-0.116-0.261-0.261v-3.876
		c0-0.145,0.118-0.261,0.261-0.261h0.671c0.418,0,0.697,0.094,0.992,0.332c0.429,0.373,0.515,0.837,0.515,1.471v0.652h0.002
		C26.551,28.838,26.43,29.324,26.209,29.624z M26.551,22.25c0,0.437-0.14,0.885-0.363,1.14c-0.148,0.179-0.506,0.484-1.205,0.484
		h-0.611c-0.144,0-0.261-0.118-0.261-0.26v-3.282c0-0.144,0.118-0.261,0.261-0.261h0.592c0.523,0,0.945,0.147,1.223,0.424
		c0.232,0.248,0.365,0.585,0.365,0.905V22.25z"/>
	<path d="M36.258,25.369c-0.527-0.734-1.221-0.989-1.83-1.214l-1.205-0.434c-0.293-0.116-0.673-0.271-0.881-0.59
		c-0.221-0.324-0.302-0.932-0.302-1.395c0-0.463,0.047-0.987,0.389-1.347c0.24-0.239,0.548-0.356,0.921-0.356
		c0.573,0,0.839,0.24,0.985,0.424c0.321,0.402,0.321,1.018,0.321,1.219v0.376c0,0.042,0.034,0.076,0.076,0.076h1.977
		c0.04,0,0.076-0.034,0.076-0.076v-0.453c0-2.253-1.293-3.653-3.376-3.653c-1.042,0-1.842,0.284-2.447,0.871
		c-0.677,0.655-1.05,1.589-1.05,2.624v0.395c0,0.713,0.024,1.406,0.303,2.043c0.381,0.893,1.021,1.282,1.865,1.585l1.44,0.515
		c0.165,0.058,0.66,0.237,0.915,0.587c0.248,0.348,0.302,0.942,0.302,1.377v0.514c0,0.303,0,0.935-0.298,1.314
		c-0.248,0.308-0.647,0.466-1.189,0.466c-0.452,0-0.797-0.14-1.024-0.421c-0.251-0.323-0.303-0.823-0.303-1.182v-0.376
		c0-0.04-0.034-0.074-0.076-0.074H29.87c-0.04,0-0.074,0.034-0.074,0.074v0.455c0,0.452,0.063,1.593,0.642,2.372
		c0.568,0.79,1.598,1.242,2.834,1.242c1.097,0,2.05-0.337,2.622-0.931c0.626-0.645,0.971-1.753,0.971-3.116v-0.479h0.002
		C36.866,26.995,36.82,26.137,36.258,25.369z"/>
	<path d="M44.2,25.687c0-10.588-8.614-19.201-19.201-19.201c-10.588,0-19.201,8.612-19.201,19.201
		c0,10.59,8.614,19.202,19.201,19.202S44.2,36.276,44.2,25.687z M24.999,42.32c-9.172,0-16.633-7.459-16.633-16.633
		c0-9.17,7.461-16.631,16.633-16.631s16.633,7.461,16.633,16.631C41.631,34.86,34.17,42.32,24.999,42.32z"/>
	<path d="M40.935,7.839L39.96,7.002l-1.674,1.95l0.974,0.837c4.642,3.989,7.301,9.782,7.301,15.898s-2.659,11.907-7.3,15.896
		l-0.974,0.84l1.674,1.948l0.976-0.839c5.208-4.476,8.198-10.983,8.198-17.846C49.135,18.823,46.145,12.316,40.935,7.839z"/>
	<path d="M3.434,25.687c0-6.114,2.661-11.907,7.303-15.896l0.976-0.837l-1.674-1.95L9.063,7.841
		c-5.208,4.477-8.198,10.982-8.198,17.846s2.987,13.37,8.196,17.846l0.974,0.839l1.674-1.948l-0.974-0.84
		C6.095,37.594,3.434,31.802,3.434,25.687z"/>
</g>
</svg>
