<?xml version="1.0" encoding="utf-8"?>
<!-- Generator: Adobe Illustrator 18.1.1, SVG Export Plug-In . SVG Version: 6.00 Build 0)  -->
<svg version="1.1" id="Слой_1" xmlns="http://www.w3.org/2000/svg" xmlns:xlink="http://www.w3.org/1999/xlink" x="0px" y="0px"
	 viewBox="0 0 67.833 51.375" enable-background="new 0 0 67.833 51.375" xml:space="preserve">
<g>
	<path fill="none" d="M56.61,10.979H11.224c-4.209,0-7.634,3.424-7.634,7.634v13.711c0,4.21,3.425,7.634,7.634,7.634H56.61
		c2.029,0,3.944-0.797,5.391-2.244c1.447-1.447,2.243-3.361,2.243-5.391V18.613C64.244,14.403,60.819,10.979,56.61,10.979z
		 M42.013,36.986l-0.235,0.13l-0.269,0.006c-1.119,0.022-27.432,0.551-29.474,0.551c-2.575,0-4.175-1.667-4.175-4.351V17.961
		c0-2.657,1.713-4.374,4.364-4.374c2.833,0,29.009,0.224,29.273,0.227l0.276,0.002l0.242,0.133c0.204,0.112,4.996,2.855,4.996,11.52
		S42.217,36.874,42.013,36.986z M56.655,36.497v-2.181c2.471,0,2.789-2.843,2.817-3.167l2.174,0.175
		C61.507,33.112,60.284,36.497,56.655,36.497z M59.473,19.403c-0.028-0.324-0.346-3.167-2.817-3.167v-2.181
		c3.629,0,4.852,3.384,4.992,5.173L59.473,19.403z"/>
	<path fill="none" d="M41.16,15.992c-3.005-0.026-26.283-0.224-28.937-0.224c-1.448,0-2.183,0.738-2.183,2.193v15.361
		c0,1.945,1.138,2.17,1.994,2.17c1.903,0,26.094-0.484,29.122-0.545c0.794-0.565,3.672-3.059,3.672-9.477
		C44.829,19.077,41.974,16.575,41.16,15.992z M25.672,31.88c0,1.134-0.928,2.061-2.061,2.061H13.59
		c-1.134,0-2.061-0.927-2.061-2.061v-0.516c0-1.133,0.928-2.061,2.061-2.061h10.02c1.134,0,2.061,0.928,2.061,2.061V31.88z
		 M25.672,19.572c0,1.133-0.928,2.061-2.061,2.061H13.59c-1.134,0-2.061-0.928-2.061-2.061v-0.516c0-1.133,0.928-2.061,2.061-2.061
		h10.02c1.134,0,2.061,0.928,2.061,2.061V19.572z M33.263,31.88c0,1.134-0.928,2.061-2.061,2.061h-2.431
		c-1.133,0-2.061-0.927-2.061-2.061v-0.516c0-1.133,0.927-2.061,2.061-2.061h2.431c1.134,0,2.061,0.928,2.061,2.061V31.88z
		 M33.263,25.726c0,1.133-0.928,2.061-2.061,2.061h-2.431c-1.133,0-2.061-0.928-2.061-2.061V25.21c0-1.133,0.927-2.061,2.061-2.061
		h2.431c1.134,0,2.061,0.928,2.061,2.061V25.726z M33.263,19.572c0,1.133-0.928,2.061-2.061,2.061h-2.431
		c-1.133,0-2.061-0.928-2.061-2.061v-0.516c0-1.133,0.927-2.061,2.061-2.061h2.431c1.134,0,2.061,0.928,2.061,2.061V19.572z
		 M40.853,31.88c0,1.134-0.928,2.061-2.061,2.061h-2.431c-1.134,0-2.06-0.927-2.06-2.061v-0.516c0-1.133,0.926-2.061,2.06-2.061
		h2.431c1.134,0,2.061,0.928,2.061,2.061V31.88z M40.853,19.572c0,1.133-0.928,2.061-2.061,2.061h-2.431
		c-1.134,0-2.06-0.928-2.06-2.061v-0.516c0-1.133,0.926-2.061,2.06-2.061h2.431c1.134,0,2.061,0.928,2.061,2.061V19.572z"/>
	<path d="M56.61,8.798H41.92l-5.067-7.445L35.05,2.579l4.232,6.218H28.676l-5.067-7.445l-1.803,1.227l4.232,6.218H11.224
		c-5.412,0-9.815,4.403-9.815,9.815v13.711c0,5.413,4.403,9.815,9.815,9.815h15.112l-4.53,6.657l1.803,1.227l5.365-7.883H39.58
		l-4.53,6.657l1.803,1.227l5.365-7.883H56.61c2.612,0,5.074-1.024,6.933-2.883c1.859-1.859,2.882-4.321,2.882-6.933V18.613
		C66.425,13.201,62.022,8.798,56.61,8.798z M64.244,32.324c0,2.029-0.796,3.943-2.243,5.391c-1.447,1.447-3.361,2.244-5.391,2.244
		H11.224c-4.209,0-7.634-3.424-7.634-7.634V18.613c0-4.21,3.425-7.634,7.634-7.634H56.61c4.209,0,7.634,3.424,7.634,7.634V32.324z"
		/>
	<path d="M42.013,13.95l-0.242-0.133l-0.276-0.002c-0.264-0.002-26.44-0.227-29.273-0.227c-2.651,0-4.364,1.717-4.364,4.374v15.361
		c0,2.684,1.6,4.351,4.175,4.351c2.042,0,28.355-0.529,29.474-0.551l0.269-0.006l0.235-0.13c0.204-0.112,4.997-2.851,4.997-11.517
		S42.217,14.062,42.013,13.95z M41.157,34.947c-3.028,0.061-27.219,0.545-29.122,0.545c-0.856,0-1.994-0.225-1.994-2.17V17.961
		c0-1.455,0.734-2.193,2.183-2.193c2.654,0,25.932,0.198,28.937,0.224c0.814,0.583,3.669,3.085,3.669,9.477
		C44.829,31.889,41.95,34.382,41.157,34.947z"/>
	<path d="M56.655,34.315v2.181c3.629,0,4.852-3.385,4.992-5.174l-2.174-0.175C59.445,31.472,59.127,34.315,56.655,34.315z"/>
	<path d="M56.655,14.055v2.181c2.471,0,2.789,2.843,2.817,3.167l2.174-0.175C61.507,17.439,60.284,14.055,56.655,14.055z"/>
	<path d="M38.791,16.995h-2.431c-1.134,0-2.06,0.928-2.06,2.061v0.516c0,1.133,0.926,2.061,2.06,2.061h2.431
		c1.134,0,2.061-0.928,2.061-2.061v-0.516C40.853,17.923,39.925,16.995,38.791,16.995z"/>
	<path d="M38.791,29.303h-2.431c-1.134,0-2.06,0.928-2.06,2.061v0.516c0,1.134,0.926,2.061,2.06,2.061h2.431
		c1.134,0,2.061-0.927,2.061-2.061v-0.516C40.853,30.23,39.925,29.303,38.791,29.303z"/>
	<path d="M31.201,16.995h-2.431c-1.133,0-2.061,0.928-2.061,2.061v0.516c0,1.133,0.927,2.061,2.061,2.061h2.431
		c1.134,0,2.061-0.928,2.061-2.061v-0.516C33.263,17.923,32.335,16.995,31.201,16.995z"/>
	<path d="M31.201,23.149h-2.431c-1.133,0-2.061,0.928-2.061,2.061v0.516c0,1.133,0.927,2.061,2.061,2.061h2.431
		c1.134,0,2.061-0.928,2.061-2.061V25.21C33.263,24.077,32.335,23.149,31.201,23.149z"/>
	<path d="M31.201,29.303h-2.431c-1.133,0-2.061,0.928-2.061,2.061v0.516c0,1.134,0.927,2.061,2.061,2.061h2.431
		c1.134,0,2.061-0.927,2.061-2.061v-0.516C33.263,30.23,32.335,29.303,31.201,29.303z"/>
	<path d="M23.611,16.995H13.59c-1.134,0-2.061,0.928-2.061,2.061v0.516c0,1.133,0.928,2.061,2.061,2.061h10.02
		c1.134,0,2.061-0.928,2.061-2.061v-0.516C25.672,17.923,24.744,16.995,23.611,16.995z"/>
	<path d="M23.611,29.303H13.59c-1.134,0-2.061,0.928-2.061,2.061v0.516c0,1.134,0.928,2.061,2.061,2.061h10.02
		c1.134,0,2.061-0.927,2.061-2.061v-0.516C25.672,30.231,24.744,29.303,23.611,29.303z"/>
</g>
</svg>
