<?xml version="1.0" encoding="utf-8"?>
<!-- Generator: Adobe Illustrator 18.1.1, SVG Export Plug-In . SVG Version: 6.00 Build 0)  -->
<svg version="1.1" id="Слой_1" xmlns="http://www.w3.org/2000/svg" xmlns:xlink="http://www.w3.org/1999/xlink" x="0px" y="0px"
	 viewBox="0 0 42 51.375" enable-background="new 0 0 42 51.375" xml:space="preserve">
<g>
	<path fill="none" d="M38.75,26.077h-0.519H37.55v0.781c-1,0-0.966-0.348-0.966-0.851c0-0.503,0.356-0.93,0.859-0.93h0.784h1.038
		l-0.293-1.107c-0.919-8.472-7.735-15.33-16.208-16.251L21.55,7.569v0.519v0.519v0.788c0,0.503,0.003,0.912-0.5,0.912
		s-0.5-0.409-0.5-0.912V8.608V7.57l-1.263,0.113C10.811,8.602,3.843,15.494,2.924,23.969l-0.193,1.107h1.038h0.788
		c0.503,0,0.909,0.329,0.909,0.832c0,0.503-0.916,0.832-0.916,0.832v-0.664H3.769H3.25H2.731l0.147,1.37
		c0.919,8.475,7.934,15.677,16.409,16.596l1.263,0.065V43.07v-0.788c0-0.503-0.003-0.912,0.5-0.912s0.5,0.409,0.5,0.912v0.49v0.312
		c0,0,0.387,0.995,0.432,0.99l1.053-0.082c8.473-0.919,15.247-8.073,16.168-16.545l0.067-1.37H38.75z M4.557,26.936L4.557,26.936
		L4.557,26.936L4.557,26.936L4.557,26.936z M19.479,42.282L19.479,42.282c0-0.014,0.004-0.026,0.004-0.04
		C19.483,42.256,19.479,42.268,19.479,42.282z M22.894,43.372l0.133-0.191l0.002,0.171C22.983,43.357,22.939,43.367,22.894,43.372z
		 M30.984,35.512c-0.167,0.277-0.46,0.442-0.783,0.442c-0.164,0-0.327-0.045-0.47-0.132l-8.537-5.126
		c-2.063-1.241-3.811-2.988-5.052-5.051l-5.126-8.538c-0.175-0.291-0.175-0.651,0-0.941c0.167-0.277,0.459-0.442,0.783-0.442
		c0.164,0,0.327,0.046,0.47,0.131l8.536,5.126c2.064,1.241,3.811,2.988,5.052,5.051l5.127,8.539
		C31.159,34.861,31.159,35.221,30.984,35.512z M37.443,26.936L37.443,26.936L37.443,26.936L37.443,26.936L37.443,26.936z"/>
	<path fill="none" d="M24.297,26.953c-1.088-1.808-2.618-3.338-4.427-4.426l-2.208-1.323l-3.188-1.91l1.91,3.188l1.324,2.21
		c1.087,1.807,2.617,3.338,4.427,4.426l2.208,1.323l3.188,1.91l-1.91-3.188L24.297,26.953z M22.613,28.319
		c-1.684-1.013-3.094-2.423-4.107-4.107l-1.323-2.208l2.208,1.323c1.684,1.013,3.094,2.423,4.107,4.107l1.323,2.208L22.613,28.319z"
		/>
	<polyline fill="none" stroke="#000000" stroke-width="0" stroke-linecap="round" stroke-linejoin="round" points="4.557,26.936 
		4.557,26.936 4.557,26.936 	"/>
	<path d="M22.894,43.372c0.045-0.005,0.089-0.015,0.134-0.02l-0.002-0.171L22.894,43.372z"/>
	<polyline fill="none" stroke="#000000" stroke-width="0" stroke-linecap="round" stroke-linejoin="round" points="37.443,26.936 
		37.443,26.936 37.443,26.936 	"/>
	<path d="M19.391,23.327l-2.208-1.323l1.323,2.208c1.013,1.684,2.423,3.094,4.107,4.107l2.208,1.323l-1.323-2.208
		C22.485,25.75,21.075,24.339,19.391,23.327z"/>
	<path d="M19.479,42.282c0-0.014,0.004-0.026,0.004-0.04C19.483,42.255,19.479,42.268,19.479,42.282L19.479,42.282z"/>
	<path d="M20.999,5.512c-11.074,0-20.083,9.101-20.083,20.175c0,11.075,9.01,20.175,20.084,20.175
		c11.075,0,20.084-9.07,20.084-20.145C41.072,14.656,32.062,5.512,20.999,5.512z M23.034,43.991l-1.053,0.082
		c-0.045,0.005-0.432-0.99-0.432-0.99v-0.312v-0.49c0-0.503,0.003-0.912-0.5-0.912s-0.5,0.409-0.5,0.912v0.788v1.038l-1.263-0.065
		c-8.475-0.919-15.49-8.121-16.409-16.596l-0.147-1.37H3.25h0.519H4.55v0.664c0,0,0.916-0.329,0.916-0.832
		c0-0.503-0.406-0.832-0.909-0.832H3.769H2.731l0.193-1.107c0.919-8.475,7.888-15.368,16.363-16.287L20.55,7.57v1.038v0.788
		c0,0.503-0.003,0.912,0.5,0.912s0.5-0.409,0.5-0.912V8.608V8.089V7.569l1.214,0.149c8.473,0.921,15.29,7.779,16.208,16.251
		l0.293,1.107h-1.038h-0.784c-0.503,0-0.859,0.427-0.859,0.93c0,0.503-0.034,0.851,0.966,0.851v-0.781h0.681h0.519h0.519
		l-0.067,1.37C38.281,35.919,31.508,43.073,23.034,43.991z"/>
	
		<line fill="none" stroke="#000000" stroke-width="0" stroke-linecap="round" stroke-linejoin="round" x1="20.999" y1="5.512" x2="20.999" y2="5.512"/>
	
		<line fill="none" stroke="#000000" stroke-width="0" stroke-linecap="round" stroke-linejoin="round" x1="20.999" y1="5.512" x2="21" y2="5.512"/>
	<path d="M25.857,26.032c-1.241-2.063-2.988-3.81-5.052-5.051l-8.536-5.126c-0.143-0.086-0.305-0.131-0.47-0.131
		c-0.324,0-0.617,0.165-0.783,0.442c-0.175,0.29-0.175,0.651,0,0.941l5.126,8.538c1.241,2.063,2.988,3.81,5.052,5.051l8.537,5.126
		c0.143,0.086,0.306,0.132,0.47,0.132c0.324,0,0.617-0.166,0.783-0.442c0.175-0.291,0.175-0.651,0-0.941L25.857,26.032z
		 M24.343,30.441l-2.208-1.323c-1.809-1.088-3.34-2.618-4.427-4.426l-1.324-2.21l-1.91-3.188l3.188,1.91l2.208,1.323
		c1.809,1.088,3.339,2.618,4.427,4.426l1.324,2.21l1.91,3.188L24.343,30.441z"/>
</g>
</svg>
