<?xml version="1.0" encoding="utf-8"?>
<!-- Generator: Adobe Illustrator 18.1.1, SVG Export Plug-In . SVG Version: 6.00 Build 0)  -->
<svg version="1.1" id="Слой_1" xmlns="http://www.w3.org/2000/svg" xmlns:xlink="http://www.w3.org/1999/xlink" x="0px" y="0px"
	 viewBox="0 0 54.25 51.375" enable-background="new 0 0 54.25 51.375" xml:space="preserve">
<g>
	<path fill="none" d="M37.386,13.037h-9.987c-4.921,12.168-1.246,22.49-0.037,25.301h11.363c1.204-0.226,11.102-2.403,11.102-12.651
		C49.826,15.617,38.557,13.255,37.386,13.037z"/>
	<path d="M37.729,10.229c-0.073-0.011-0.146-0.018-0.22-0.018h-11.05c-0.562,0-1.071,0.334-1.295,0.849
		c-6.887,15.843-0.241,28.803,0.045,29.347c0.245,0.464,0.726,0.755,1.25,0.755h12.39c0.076,0,0.151-0.006,0.226-0.018
		c0.135-0.022,13.576-2.353,13.576-15.457C52.651,12.731,37.878,10.252,37.729,10.229z M38.724,38.338H27.361
		c-1.209-2.811-4.884-13.133,0.037-25.301h9.987c1.171,0.218,12.44,2.58,12.44,12.651C49.826,35.935,39.928,38.112,38.724,38.338z"
		/>
	<path d="M17.326,11.216H3.012c-0.78,0-1.412,0.632-1.412,1.413c0,0.78,0.633,1.412,1.412,1.412h14.315
		c0.78,0,1.412-0.633,1.412-1.412C18.739,11.849,18.106,11.216,17.326,11.216z"/>
	<path d="M17.326,37.334H3.012c-0.78,0-1.412,0.633-1.412,1.413s0.633,1.412,1.412,1.412h14.315c0.78,0,1.412-0.632,1.412-1.412
		C18.739,37.966,18.106,37.334,17.326,37.334z"/>
	<path d="M17.326,28.627H3.012c-0.78,0-1.412,0.633-1.412,1.413c0,0.78,0.633,1.412,1.412,1.412h14.315
		c0.78,0,1.412-0.633,1.412-1.412C18.739,29.26,18.106,28.627,17.326,28.627z"/>
	<path d="M17.326,19.922H3.012c-0.78,0-1.412,0.633-1.412,1.413c0,0.78,0.633,1.412,1.412,1.412h14.315
		c0.78,0,1.412-0.633,1.412-1.412C18.739,20.555,18.106,19.922,17.326,19.922z"/>
</g>
</svg>
