<?xml version="1.0" encoding="utf-8"?>
<!-- Generator: Adobe Illustrator 18.1.1, SVG Export Plug-In . SVG Version: 6.00 Build 0)  -->
<svg version="1.1" id="Слой_1" xmlns="http://www.w3.org/2000/svg" xmlns:xlink="http://www.w3.org/1999/xlink" x="0px" y="0px"
	 viewBox="0 0 39.125 51.375" enable-background="new 0 0 39.125 51.375" xml:space="preserve">
<g>
	<path fill="none" d="M19.563,28.783c-1.815,0-3.291,1.291-3.291,2.876c0,1.09,0.704,2.072,1.836,2.566
		c0.358,0.156,0.599,0.496,0.626,0.884c0.029,0.39-0.162,0.761-0.494,0.966c-0.593,0.366-0.948,0.958-0.948,1.582
		c0,1.076,1.019,1.953,2.271,1.953c1.251,0,2.27-0.876,2.27-1.953c0-0.624-0.354-1.215-0.949-1.582
		c-0.332-0.204-0.522-0.576-0.495-0.966c0.028-0.389,0.27-0.729,0.626-0.884c1.135-0.495,1.839-1.477,1.839-2.566
		C22.855,30.073,21.378,28.783,19.563,28.783z"/>
	<path fill="none" d="M19.563,10.354c-4.392,0-7.966,3.727-7.966,8.308c0,0.009-0.005,0.017-0.005,0.026h15.942
		c0-0.009-0.005-0.017-0.005-0.026C27.529,14.082,23.955,10.354,19.563,10.354z"/>
	<path fill="none" d="M9.508,18.688c0-0.009-0.005-0.017-0.005-0.026c0-5.737,4.513-10.403,10.061-10.403
		c5.546,0,10.06,4.666,10.06,10.403c0,0.009-0.005,0.017-0.005,0.026h3.667c-0.133-7.764-6.231-14.04-13.721-14.04
		c-7.49,0-13.589,6.276-13.722,14.04H9.508z"/>
	<path fill="none" d="M34.076,20.783H5.05v0.001c-1.009,0-1.86,0.592-1.86,1.292v23.36c0,0.7,0.851,1.291,1.86,1.291h29.026
		c1.009,0,1.861-0.591,1.861-1.291V22.076C35.937,21.375,35.085,20.783,34.076,20.783z M23.929,37.657
		c-0.001,2.232-1.959,4.047-4.366,4.047c-2.407,0-4.365-1.815-4.365-4.047c0-0.836,0.277-1.636,0.774-2.302
		c-1.132-0.925-1.795-2.25-1.795-3.697c0-2.742,2.416-4.972,5.386-4.972c2.969,0,5.385,2.23,5.385,4.972
		c0,1.421-0.676,2.761-1.799,3.691C23.65,36.016,23.929,36.818,23.929,37.657z"/>
	<path d="M35.389,18.895C35.364,9.88,28.276,2.553,19.563,2.553c-8.712,0-15.801,7.326-15.826,16.341
		c-1.534,0.466-2.643,1.709-2.643,3.181v23.36c0,1.867,1.774,3.385,3.955,3.385h29.026c2.18,0,3.954-1.518,3.954-3.385v-23.36
		C38.03,20.605,36.922,19.362,35.389,18.895z M19.563,4.648c7.49,0,13.588,6.276,13.721,14.04h-3.667
		c0-0.009,0.005-0.017,0.005-0.026c0-5.737-4.513-10.403-10.06-10.403c-5.547,0-10.061,4.666-10.061,10.403
		c0,0.009,0.005,0.017,0.005,0.026H5.842C5.974,10.924,12.074,4.648,19.563,4.648z M27.534,18.688H11.593
		c0-0.009,0.005-0.017,0.005-0.026c0-4.581,3.573-8.308,7.966-8.308c4.391,0,7.966,3.727,7.966,8.308
		C27.529,18.672,27.534,18.679,27.534,18.688z M35.937,45.437c0,0.7-0.852,1.291-1.861,1.291H5.05c-1.009,0-1.86-0.591-1.86-1.291
		v-23.36c0-0.701,0.851-1.292,1.86-1.292v-0.001h29.026c1.009,0,1.861,0.591,1.861,1.292V45.437z"/>
	<path d="M24.948,31.658c0-2.742-2.416-4.972-5.385-4.972c-2.97,0-5.386,2.23-5.386,4.972c0,1.446,0.663,2.772,1.795,3.697
		c-0.497,0.666-0.774,1.466-0.774,2.302c0,2.232,1.958,4.047,4.365,4.047c2.407,0,4.365-1.815,4.366-4.047
		c0-0.839-0.279-1.641-0.78-2.308C24.272,34.419,24.948,33.08,24.948,31.658z M21.015,34.225c-0.357,0.156-0.599,0.495-0.626,0.884
		c-0.027,0.391,0.164,0.762,0.495,0.966c0.595,0.367,0.949,0.959,0.949,1.582c0,1.076-1.019,1.953-2.27,1.953
		c-1.252,0-2.271-0.876-2.271-1.953c0-0.624,0.355-1.216,0.948-1.582c0.332-0.206,0.522-0.576,0.494-0.966
		c-0.028-0.388-0.269-0.729-0.626-0.884c-1.132-0.495-1.836-1.477-1.836-2.566c0-1.585,1.477-2.876,3.291-2.876
		c1.815,0,3.291,1.291,3.291,2.876C22.855,32.747,22.15,33.729,21.015,34.225z"/>
</g>
</svg>
