<?xml version="1.0" encoding="utf-8"?>
<!-- Generator: Adobe Illustrator 18.1.1, SVG Export Plug-In . SVG Version: 6.00 Build 0)  -->
<svg version="1.1" id="Слой_1" xmlns="http://www.w3.org/2000/svg" xmlns:xlink="http://www.w3.org/1999/xlink" x="0px" y="0px"
	 viewBox="0 0 51.5 51.375" enable-background="new 0 0 51.5 51.375" xml:space="preserve">
<g>
	<path fill="none" d="M44.997,16.781c-0.359-1.818-2.25-3.661-3.968-3.661H18.654c-2.412,0-4.345,2.699-4.345,5.351v14.432
		c0,0.173,0,0.354,0,0.568v0.004c0,2.322,2.095,3.645,4.348,3.645H41.82c1.862,0,3.571-0.617,4.688-1.977
		c1.078-1.31,1.478-3.003,1.099-4.928L44.997,16.781z M25.875,26.178c-0.327,0-0.642-0.127-0.863-0.348
		c-0.23-0.23-0.357-0.537-0.357-0.864c0-0.326,0.127-0.633,0.357-0.863l3.608-3.607c0.46-0.463,1.264-0.464,1.727,0
		c0.23,0.231,0.357,0.538,0.357,0.863s-0.127,0.632-0.357,0.863l-3.609,3.608C26.516,26.051,26.201,26.178,25.875,26.178z
		 M37.562,23.665l-8.659,8.659c-0.222,0.222-0.536,0.349-0.864,0.349s-0.642-0.127-0.864-0.349c-0.23-0.231-0.357-0.538-0.357-0.863
		c0-0.326,0.127-0.633,0.357-0.864l8.66-8.659c0.463-0.461,1.266-0.459,1.727,0c0.23,0.229,0.357,0.536,0.357,0.863
		S37.793,23.435,37.562,23.665z"/>
	<rect x="3.309" y="17.12" fill="none" width="8" height="12"/>
	<path d="M30.704,21.358c0-0.325-0.127-0.632-0.357-0.863c-0.463-0.464-1.267-0.463-1.727,0l-3.608,3.607
		c-0.23,0.23-0.357,0.537-0.357,0.863c0,0.327,0.127,0.634,0.357,0.864c0.221,0.221,0.536,0.348,0.863,0.348
		c0.327,0,0.642-0.127,0.863-0.348l3.609-3.608C30.577,21.99,30.704,21.684,30.704,21.358z"/>
	<path d="M35.835,21.938l-8.66,8.659c-0.23,0.231-0.357,0.538-0.357,0.864c0,0.325,0.127,0.632,0.357,0.863
		c0.222,0.222,0.536,0.349,0.864,0.349s0.642-0.127,0.864-0.349l8.659-8.659c0.23-0.23,0.357-0.537,0.357-0.864
		s-0.127-0.634-0.357-0.863C37.101,21.479,36.298,21.477,35.835,21.938z"/>
	<path d="M50.004,29.951l-2.61-13.418c-0.589-2.989-3.445-5.412-6.364-5.412H18.654c-2.368,0-4.601,0.927-5.917,3H3.309V8.369
		c0-0.685-0.33-1.221-1-1.221c-0.669,0-1,0.536-1,1.221v34.637c0,0.685,0.33,1.221,1,1.221c0.67,0,1-0.536,1-1.221V32.12h8v0.783
		c0,3.872,3.533,6.217,7.348,6.217H41.82c2.677,0,5.013-0.644,6.575-2.546C49.953,34.681,50.524,32.588,50.004,29.951z
		 M11.309,29.12h-8v-12h8V29.12z M46.509,35.143c-1.117,1.36-2.826,1.977-4.688,1.977H18.657c-2.253,0-4.348-1.323-4.348-3.645
		v-0.004c0-0.214,0-0.395,0-0.568V18.472c0-2.652,1.934-5.351,4.345-5.351h22.375c1.718,0,3.609,1.842,3.968,3.661l2.611,13.434
		C47.987,32.14,47.587,33.834,46.509,35.143z"/>
</g>
</svg>
