<?xml version="1.0" encoding="utf-8"?>
<!-- Generator: Adobe Illustrator 18.1.1, SVG Export Plug-In . SVG Version: 6.00 Build 0)  -->
<svg version="1.1" id="Слой_1" xmlns="http://www.w3.org/2000/svg" xmlns:xlink="http://www.w3.org/1999/xlink" x="0px" y="0px"
	 viewBox="0 0 40.625 50.125" enable-background="new 0 0 40.625 50.125" xml:space="preserve">
<g>
	<path fill="none" d="M23.868,21.497c-1.851-1.849-4.311-2.867-6.927-2.867c-2.619,0-5.08,1.019-6.932,2.871
		c-3.11,3.11-6.077,15.291-7.163,20.159l11.718-11.718l0-0.001c0.12-0.12,0.277-0.18,0.435-0.18c0.157,0,0.315,0.06,0.435,0.18
		c0.831,0.831,2.184,0.83,3.015-0.001c0.831-0.831,0.83-2.182,0-3.014c-0.831-0.831-2.184-0.831-3.014-0.001
		c-0.389,0.39-0.611,0.906-0.624,1.457c-0.008,0.339-0.294,0.608-0.629,0.6c-0.339-0.008-0.608-0.29-0.6-0.629
		c0.02-0.867,0.369-1.683,0.983-2.297c1.31-1.31,3.442-1.31,4.753,0.001c1.31,1.31,1.31,3.442,0,4.752
		c-0.655,0.655-1.516,0.983-2.377,0.983c-0.665,0-1.327-0.201-1.898-0.592L3.714,42.528c4.868-1.087,17.049-4.055,20.159-7.163
		c1.852-1.852,2.871-4.313,2.871-6.932c0-2.616-1.019-5.077-2.867-6.928L23.868,21.497z"/>
	<path d="M39.344,25.587c-0.175-0.291-0.552-0.385-0.843-0.211l-5.634,3.381l-8.121-8.121c-0.002-0.002-0.003-0.003-0.004-0.005
		c-0.002-0.002-0.003-0.003-0.005-0.004l-8.12-8.121l2.975-4.959l16.82,16.82c0.24,0.24,0.629,0.24,0.869,0
		c0.24-0.24,0.24-0.629,0-0.869L19.904,6.122c-0.134-0.133-0.322-0.196-0.51-0.175c-0.188,0.023-0.355,0.131-0.452,0.294
		l-3.627,6.046c-0.145,0.242-0.107,0.552,0.092,0.751l4.887,4.886c-1.071-0.34-2.198-0.523-3.354-0.523
		c-2.947,0-5.718,1.147-7.801,3.231c-4.153,4.152-7.784,22.055-7.936,22.815c-0.006,0.032-0.006,0.064-0.007,0.095
		c-0.001,0.013-0.003,0.024-0.003,0.037c0.001,0.069,0.015,0.136,0.039,0.2c0.005,0.014,0.012,0.027,0.018,0.041
		c0.03,0.066,0.068,0.129,0.121,0.182c0.059,0.058,0.127,0.103,0.202,0.134c0.074,0.031,0.154,0.046,0.233,0.046
		c0.04,0,0.081-0.004,0.121-0.012c0.76-0.153,18.663-3.783,22.815-7.936c2.084-2.083,3.232-4.854,3.232-7.801
		c0-1.157-0.183-2.283-0.523-3.355l4.887,4.887c0.119,0.119,0.276,0.18,0.435,0.18c0.108,0,0.218-0.029,0.316-0.088l6.045-3.628
		C39.425,26.256,39.519,25.878,39.344,25.587z M23.873,35.366c-3.109,3.108-15.29,6.076-20.159,7.163l11.328-11.328
		c0.57,0.391,1.232,0.592,1.898,0.592c0.861,0,1.722-0.328,2.377-0.983c1.31-1.31,1.31-3.442,0-4.752
		c-1.31-1.31-3.442-1.311-4.753-0.001c-0.614,0.614-0.963,1.43-0.983,2.297c-0.008,0.339,0.26,0.621,0.6,0.629
		c0.335,0.008,0.621-0.262,0.629-0.6c0.013-0.55,0.234-1.067,0.624-1.457c0.83-0.83,2.183-0.83,3.014,0.001
		c0.831,0.831,0.831,2.183,0,3.014c-0.831,0.831-2.184,0.831-3.015,0.001c-0.12-0.12-0.277-0.18-0.435-0.18
		c-0.158,0-0.315,0.06-0.435,0.18l0,0.001L2.845,41.66c1.086-4.868,4.053-17.049,7.163-20.159c1.852-1.852,4.313-2.871,6.932-2.871
		c2.616,0,5.076,1.018,6.927,2.867l0.009,0.009c1.849,1.851,2.867,4.311,2.867,6.928C26.744,31.052,25.725,33.514,23.873,35.366z"/>
	<path d="M35.996,42.953H11.081c-0.339,0-0.615,0.275-0.615,0.615s0.275,0.615,0.615,0.615h24.915c0.339,0,0.615-0.275,0.615-0.615
		S36.335,42.953,35.996,42.953z"/>
</g>
</svg>
