<?xml version="1.0" encoding="utf-8"?>
<!-- Generator: Adobe Illustrator 18.1.1, SVG Export Plug-In . SVG Version: 6.00 Build 0)  -->
<svg version="1.1" id="Слой_1" xmlns="http://www.w3.org/2000/svg" xmlns:xlink="http://www.w3.org/1999/xlink" x="0px" y="0px"
	 viewBox="0 0 23.396 23.072" enable-background="new 0 0 23.396 23.072" xml:space="preserve">
<g>
	<path fill="none" d="M17.763,14.257c-0.387-0.387-1.071-0.387-1.458,0l-0.581,0.581c-0.642,0.642-1.784,0.831-2.6,0.429
		c-0.08-0.04-1.984-0.984-3.143-2.143c-1.159-1.16-2.104-3.063-2.144-3.143C7.436,9.166,7.625,8.025,8.267,7.382L8.849,6.8
		c0.402-0.402,0.402-1.056,0-1.457L6.465,2.96c-0.194-0.194-0.452-0.3-0.729-0.3h0c-0.276,0-0.535,0.107-0.729,0.3L3.456,4.512
		C3.332,4.636,3.07,5.133,2.923,5.662C2.796,6.119,2.865,7.06,3.073,7.717c0.011,0.034,1.139,3.473,4.991,7.324
		c3.851,3.852,7.29,4.98,7.324,4.991c0.657,0.208,1.617,0.33,2.055,0.151c1.194-0.489,2.269-1.669,2.463-1.845l0.502-0.502
		c0.249-0.249,0.126-0.808-0.262-1.196L17.763,14.257z"/>
	<path d="M20.632,16.154l-2.383-2.383c-0.669-0.67-1.759-0.67-2.43,0l-0.581,0.581c-0.432,0.432-1.261,0.57-1.81,0.3
		c-0.019-0.009-1.883-0.934-2.961-2.011c-1.078-1.079-2.004-2.94-2.013-2.959c-0.27-0.548-0.134-1.372,0.299-1.804l0.581-0.571
		c0.67-0.67,0.669-1.738,0-2.408l-2.383-2.34C6.628,2.236,6.197,2.143,5.737,2.143h0c-0.46,0-0.891,0.093-1.214,0.416L2.971,4.026
		C2.695,4.301,2.399,4.98,2.261,5.478C2.099,6.062,2.168,7.136,2.419,7.925c0.046,0.146,1.18,3.622,5.16,7.602
		c3.979,3.98,7.456,5.114,7.602,5.16c0.789,0.25,1.862,0.311,2.447,0.158c0.816-0.214,2.508-1.73,2.557-1.814l0.71-0.71
		C21.419,17.796,21.302,16.824,20.632,16.154z M20.408,17.836l-0.502,0.502c-0.194,0.176-1.268,1.357-2.463,1.845
		c-0.438,0.179-1.398,0.058-2.055-0.151c-0.034-0.011-3.473-1.139-7.324-4.991c-3.851-3.852-4.98-7.29-4.991-7.324
		C2.865,7.06,2.796,6.119,2.923,5.662c0.147-0.529,0.41-1.026,0.534-1.15L5.008,2.96c0.194-0.194,0.452-0.3,0.729-0.3h0
		c0.276,0,0.535,0.106,0.729,0.3l2.383,2.383c0.402,0.402,0.402,1.056,0,1.457L8.267,7.382C7.625,8.025,7.436,9.166,7.838,9.981
		c0.04,0.081,0.985,1.983,2.144,3.143c1.159,1.159,3.063,2.103,3.143,2.143c0.816,0.402,1.957,0.213,2.6-0.429l0.581-0.581
		c0.387-0.387,1.071-0.387,1.458,0l2.383,2.383C20.535,17.028,20.657,17.587,20.408,17.836z"/>
</g>
</svg>
