<?xml version="1.0" encoding="utf-8"?>
<!-- Generator: Adobe Illustrator 18.1.1, SVG Export Plug-In . SVG Version: 6.00 Build 0)  -->
<svg version="1.1" id="Слой_1" xmlns="http://www.w3.org/2000/svg" xmlns:xlink="http://www.w3.org/1999/xlink" x="0px" y="0px"
	 viewBox="0 0 44.75 50.125" enable-background="new 0 0 44.75 50.125" xml:space="preserve">
<g>
	<path fill="none" d="M36.411,15.142c0-1.1-0.428-2.134-1.206-2.911c-0.777-0.777-1.81-1.205-2.908-1.205h-0.001
		c-1.099,0-2.132,0.428-2.909,1.205c-0.778,0.778-1.207,1.812-1.207,2.91c0,1.099,0.428,2.131,1.206,2.909
		c1.605,1.605,4.217,1.605,5.822,0C35.984,17.274,36.411,16.241,36.411,15.142z"/>
	<path d="M43.939,4.095c0.018-0.163-0.038-0.326-0.155-0.442c-0.116-0.116-0.279-0.173-0.442-0.155l-1.748,0.198
		c-1.074-0.161-11.199-1.342-21.986,9.445c-0.386,0.387-0.759,0.771-1.122,1.153l-6.568,0.002c-0.159,0-0.31,0.07-0.413,0.192
		L0.935,27.021c-0.181,0.214-0.167,0.531,0.031,0.729l1.494,1.495c0.172,0.172,0.438,0.207,0.649,0.087l6.081-3.466
		c0.259-0.148,0.349-0.477,0.202-0.736c-0.147-0.259-0.477-0.349-0.736-0.202L2.932,28.19l-0.853-0.853l10.09-11.963l6.549-0.002
		c0.148,0,0.29-0.061,0.392-0.169c0.407-0.43,0.825-0.864,1.261-1.3c5.62-5.62,11.062-7.803,14.638-8.645
		c3.873-0.911,6.455-0.492,6.481-0.487c0.05,0.009,0.102,0.011,0.152,0.005l1.148-0.13l-0.13,1.148
		c-0.006,0.05-0.004,0.102,0.004,0.152c0.004,0.026,0.425,2.608-0.487,6.481c-0.842,3.576-3.025,9.018-8.645,14.638
		c-0.436,0.436-0.871,0.856-1.302,1.262c-0.108,0.102-0.169,0.244-0.169,0.393l0.001,6.548L20.101,45.359l-0.839-0.839l3.569-5.622
		c0.16-0.252,0.085-0.585-0.166-0.745c-0.252-0.16-0.585-0.084-0.745,0.167l-3.801,5.988c-0.135,0.213-0.105,0.492,0.074,0.671
		l1.495,1.495c0.105,0.105,0.243,0.158,0.382,0.158c0.123,0,0.247-0.042,0.348-0.127l12.533-10.572
		c0.122-0.103,0.192-0.253,0.192-0.413l-0.001-6.567c0.383-0.364,0.768-0.737,1.155-1.124c10.787-10.787,9.606-20.912,9.444-21.987
		L43.939,4.095z"/>
	<path d="M10.939,24.034c-1.524,2.469-2.211,4.04-2.24,4.105c-0.088,0.203-0.043,0.44,0.114,0.596l9.889,9.888
		c0.103,0.103,0.241,0.158,0.382,0.158c0.073,0,0.146-0.015,0.215-0.045c0.066-0.028,1.635-0.715,4.104-2.239
		c0.254-0.156,0.333-0.488,0.176-0.742c-0.156-0.253-0.489-0.333-0.742-0.175c-1.755,1.082-3.059,1.738-3.637,2.014l-9.356-9.355
		c0.276-0.579,0.932-1.884,2.015-3.638c0.156-0.253,0.078-0.586-0.176-0.742C11.428,23.701,11.096,23.78,10.939,24.034z"/>
	<path d="M15.692,37.334c-0.16-0.164-0.408-0.209-0.615-0.11c-0.959,0.451-2.121,0.401-3.109-0.138
		c-0.262-0.142-0.59-0.046-0.732,0.217c-0.143,0.262-0.046,0.589,0.216,0.732c1.169,0.635,2.534,0.746,3.724,0.315l0.683,0.697
		c-2.957,3.29-7.967,2.965-9.852,2.702c0.442-1.017,0.347-2.206,0.247-3.45c-0.179-2.227-0.364-4.526,2.14-6.711l0.756,0.756
		c-0.29,1.225-0.214,2.4,0.216,3.397c0.004,0.01,0.382,1.058-0.064,1.813c-0.258,0.437-0.77,0.717-1.521,0.831
		c-0.295,0.045-0.497,0.32-0.452,0.614c0.045,0.295,0.322,0.497,0.615,0.452c1.092-0.166,1.863-0.623,2.293-1.358
		c0.704-1.203,0.164-2.671,0.131-2.755c-0.376-0.875-0.41-1.917-0.098-3.01c0.054-0.188,0.001-0.391-0.137-0.53l-1.322-1.322
		c-0.193-0.193-0.5-0.212-0.715-0.043c-3.344,2.633-3.107,5.581-2.916,7.95c0.112,1.396,0.209,2.602-0.458,3.422
		c-0.117,0.145-0.152,0.34-0.092,0.516c0.061,0.177,0.208,0.309,0.39,0.35C5.15,42.703,6.493,43,8.31,43
		c2.653,0,6.318-0.632,8.701-3.646c0.168-0.213,0.152-0.518-0.038-0.712L15.692,37.334z"/>
	<path d="M35.97,18.814c0.98-0.98,1.52-2.284,1.52-3.672c0-1.388-0.541-2.693-1.522-3.674c-0.98-0.981-2.284-1.521-3.671-1.521
		h-0.001c-1.387,0-2.691,0.541-3.672,1.521c-0.982,0.982-1.523,2.286-1.523,3.673c-0.001,1.387,0.54,2.692,1.522,3.673
		c1.013,1.013,2.344,1.519,3.674,1.519C33.627,20.333,34.958,19.826,35.97,18.814z M29.386,18.051
		c-0.778-0.778-1.206-1.811-1.206-2.909c0-1.099,0.429-2.132,1.207-2.91c0.777-0.777,1.81-1.205,2.909-1.205h0.001
		c1.099,0,2.132,0.428,2.908,1.205c0.777,0.777,1.205,1.811,1.206,2.911c0,1.099-0.427,2.133-1.204,2.909
		C33.602,19.656,30.991,19.656,29.386,18.051z"/>
	<path d="M19.575,26.89l-4.452,4.452c-0.211,0.211-0.211,0.552,0,0.763c0.105,0.105,0.243,0.158,0.381,0.158
		c0.138,0,0.276-0.053,0.382-0.158l4.452-4.452c0.211-0.211,0.211-0.552,0-0.763C20.127,26.679,19.786,26.679,19.575,26.89z"/>
	<path d="M17.35,24.665l-4.452,4.452c-0.211,0.211-0.211,0.552,0,0.763c0.105,0.105,0.243,0.158,0.381,0.158
		c0.138,0,0.276-0.053,0.382-0.158l4.452-4.452c0.211-0.211,0.211-0.552,0-0.763C17.902,24.454,17.561,24.454,17.35,24.665z"/>
	<path d="M17.31,34.29c0.105,0.105,0.243,0.158,0.382,0.158s0.276-0.053,0.381-0.158l4.452-4.451c0.211-0.211,0.211-0.552,0-0.763
		s-0.552-0.211-0.763,0l-4.452,4.451C17.099,33.738,17.099,34.08,17.31,34.29z"/>
	<path d="M17.214,17.155h-4.946c-0.298,0-0.54,0.241-0.54,0.54c0,0.298,0.242,0.54,0.54,0.54h4.946c0.298,0,0.54-0.241,0.54-0.54
		C17.753,17.396,17.512,17.155,17.214,17.155z"/>
	<path d="M29.204,30.224v4.946c0,0.298,0.242,0.54,0.54,0.54c0.298,0,0.54-0.241,0.54-0.54v-4.946c0-0.298-0.242-0.54-0.54-0.54
		C29.446,29.685,29.204,29.926,29.204,30.224z"/>
</g>
</svg>
