<?xml version="1.0" encoding="utf-8"?>
<!-- Generator: Adobe Illustrator 18.1.1, SVG Export Plug-In . SVG Version: 6.00 Build 0)  -->
<svg version="1.1" id="Слой_1" xmlns="http://www.w3.org/2000/svg" xmlns:xlink="http://www.w3.org/1999/xlink" x="0px" y="0px"
	 viewBox="0 0 53.75 51.375" enable-background="new 0 0 53.75 51.375" xml:space="preserve">
<g>
	<path d="M26.874,13.891c1.963,0,3.806-0.926,5.194-2.607c0.378-0.456,0.492-1.149,0.286-1.744
		c-0.204-0.599-0.685-0.989-1.219-0.989h-8.517c-0.535,0-1.017,0.39-1.22,0.989c-0.206,0.595-0.093,1.284,0.287,1.744
		C23.072,12.965,24.915,13.891,26.874,13.891z"/>
	<path d="M26.393,24.853c5.66,0,10.927-2.812,14.084-7.516c0.464-0.694,0.281-1.629-0.41-2.095
		c-0.691-0.466-1.632-0.279-2.094,0.413c-2.598,3.868-6.927,6.178-11.58,6.178c-4.148,0-8.049-1.828-10.71-5.014
		c-0.531-0.64-1.481-0.729-2.125-0.193c-0.64,0.533-0.728,1.483-0.191,2.125C16.599,22.629,21.348,24.853,26.393,24.853z"/>
	<path d="M26.403,33.658c7.716,0,14.961-3.417,19.876-9.375c0.531-0.644,0.439-1.596-0.204-2.126
		c-0.646-0.531-1.594-0.437-2.126,0.204c-4.339,5.261-10.735,8.277-17.547,8.277c-6.298,0-12.37-2.647-16.661-7.261
		c-0.569-0.612-1.526-0.642-2.133-0.077c-0.61,0.566-0.646,1.521-0.077,2.131C12.391,30.658,19.269,33.658,26.403,33.658z"/>
	<path d="M52.194,29.102c-0.617-0.552-1.574-0.504-2.13,0.116c-6.044,6.73-14.698,10.588-23.739,10.588
		c-8.589,0-16.648-3.364-22.689-9.472c-0.584-0.593-1.54-0.598-2.133-0.012c-0.593,0.585-0.6,1.541-0.012,2.133
		c6.614,6.687,15.432,10.37,24.834,10.37c9.896,0,19.367-4.225,25.986-11.591C52.868,30.614,52.815,29.66,52.194,29.102z"/>
</g>
</svg>
