<?xml version="1.0" encoding="utf-8"?>
<!-- Generator: Adobe Illustrator 18.1.1, SVG Export Plug-In . SVG Version: 6.00 Build 0)  -->
<svg version="1.1" id="Слой_1" xmlns="http://www.w3.org/2000/svg" xmlns:xlink="http://www.w3.org/1999/xlink" x="0px" y="0px"
	 viewBox="0 0 41.5 50.125" enable-background="new 0 0 41.5 50.125" xml:space="preserve">
<g>
	<path fill="none" d="M20.75,6.311c-10.34,0-18.751,8.412-18.751,18.751S10.41,43.814,20.75,43.814
		c10.34,0,18.751-8.412,18.751-18.751S31.09,6.311,20.75,6.311z M7.083,20.255c-0.157,0-0.315-0.06-0.435-0.18
		c-0.24-0.24-0.24-0.629,0-0.869c3.312-3.312,8.701-3.312,12.013,0c0.24,0.24,0.24,0.629,0,0.869c-0.24,0.24-0.629,0.24-0.869,0
		c-2.834-2.832-7.443-2.833-10.275,0C7.397,20.195,7.24,20.255,7.083,20.255z M32.328,36.641c-3.093,3.093-7.205,4.796-11.578,4.796
		h0c-4.374,0-8.485-1.703-11.578-4.796c-0.24-0.24-0.24-0.629,0-0.869c0.24-0.24,0.629-0.24,0.869,0
		c2.861,2.861,6.664,4.436,10.709,4.436c4.045,0,7.849-1.576,10.709-4.436c0.24-0.24,0.629-0.24,0.869,0
		C32.569,36.012,32.569,36.401,32.328,36.641z M34.417,20.255c-0.157,0-0.315-0.06-0.435-0.18c-2.833-2.832-7.442-2.833-10.275,0
		c-0.24,0.24-0.629,0.24-0.869,0c-0.24-0.24-0.24-0.629,0-0.869c3.312-3.312,8.702-3.311,12.013,0c0.24,0.24,0.24,0.629,0,0.869
		C34.732,20.195,34.575,20.255,34.417,20.255z"/>
	<path d="M20.75,5.082c-11.017,0-19.98,8.963-19.98,19.98c0,11.017,8.963,19.98,19.98,19.98c11.017,0,19.98-8.963,19.98-19.98
		C40.73,14.045,31.767,5.082,20.75,5.082z M20.75,43.814c-10.34,0-18.751-8.412-18.751-18.751S10.41,6.311,20.75,6.311
		c10.34,0,18.751,8.412,18.751,18.751S31.09,43.814,20.75,43.814z"/>
	<path d="M31.459,35.772c-2.861,2.861-6.664,4.436-10.709,4.436c-4.045,0-7.848-1.576-10.709-4.436c-0.24-0.24-0.629-0.24-0.869,0
		c-0.24,0.24-0.24,0.629,0,0.869c3.093,3.093,7.205,4.796,11.578,4.796h0c4.373,0,8.485-1.703,11.578-4.796
		c0.24-0.24,0.24-0.629,0-0.869C32.088,35.532,31.699,35.532,31.459,35.772z"/>
	<path d="M17.792,20.075c0.24,0.24,0.629,0.24,0.869,0c0.24-0.24,0.24-0.629,0-0.869c-3.312-3.312-8.702-3.312-12.013,0
		c-0.24,0.24-0.24,0.629,0,0.869c0.12,0.12,0.277,0.18,0.435,0.18s0.315-0.06,0.435-0.18C10.349,17.242,14.958,17.243,17.792,20.075
		z"/>
	<path d="M34.852,19.206c-3.311-3.311-8.701-3.312-12.013,0c-0.24,0.24-0.24,0.629,0,0.869c0.24,0.24,0.629,0.24,0.869,0
		c2.833-2.833,7.442-2.832,10.275,0c0.12,0.12,0.277,0.18,0.435,0.18c0.157,0,0.315-0.06,0.435-0.18
		C35.092,19.835,35.092,19.446,34.852,19.206z"/>
</g>
</svg>
