<?xml version="1.0" encoding="utf-8"?>
<!-- Generator: Adobe Illustrator 18.1.1, SVG Export Plug-In . SVG Version: 6.00 Build 0)  -->
<svg version="1.1" id="Слой_1" xmlns="http://www.w3.org/2000/svg" xmlns:xlink="http://www.w3.org/1999/xlink" x="0px" y="0px"
	 viewBox="0 0 87.167 70.667" enable-background="new 0 0 87.167 70.667" xml:space="preserve">
<g>
	<path fill="none" d="M43.383,21.476c-1.159,0-2.364,0.102-3.638,0.294l1.842,13.056c0.608-0.046,1.208-0.076,1.796-0.076
		c0.713,0,1.445,0.043,2.19,0.107l1.838-13.032C45.988,21.594,44.66,21.477,43.383,21.476z"/>
	<path fill="none" d="M22.227,35.414c-6.847,0-12.416,5.569-12.416,12.415c0,6.848,5.569,12.418,12.416,12.418
		c6.846,0,12.416-5.57,12.417-12.418C34.644,40.984,29.074,35.414,22.227,35.414z M19.772,41.237c-2.952,0-5.352,2.402-5.352,5.353
		c0,0.741,0.149,1.459,0.444,2.135l-2.591,1.128c-0.451-1.034-0.679-2.133-0.679-3.263c0-4.51,3.67-8.179,8.179-8.18V41.237z"/>
	<path fill="none" d="M38.741,34.88l-3.203-22.724c-0.389-4.303-3.886-7.495-8.142-7.495c-3.115,0-5.915,1.732-7.308,4.519
		c-0.084,0.168-0.156,0.327-0.225,0.49l-9.618,20.928c3.402-2.372,7.531-3.769,11.982-3.769
		C28.923,26.829,34.893,29.983,38.741,34.88z"/>
	<path fill="none" d="M64.938,26.831c4.452,0,8.583,1.396,11.983,3.768l-9.6-20.889c-0.087-0.204-0.158-0.36-0.236-0.513
		c-0.013-0.026-0.031-0.065-0.042-0.091c-1.36-2.712-4.161-4.443-7.274-4.443c-4.257,0-7.753,3.191-8.132,7.425l-3.215,22.796
		C52.271,29.986,58.242,26.831,64.938,26.831z"/>
	<path fill="none" d="M22.227,29.656c-10.021,0-18.173,8.153-18.173,18.173c0,10.022,8.153,18.175,18.173,18.175
		s18.174-8.154,18.174-18.175C40.401,37.81,32.249,29.656,22.227,29.656z M22.227,63.073c-8.405,0-15.242-6.838-15.242-15.244
		c0-8.404,6.837-15.241,15.242-15.241c8.404,0,15.242,6.838,15.243,15.241C37.47,56.235,30.632,63.073,22.227,63.073z"/>
	<path fill="none" d="M64.938,29.656c-10.022,0-18.173,8.153-18.173,18.173c0,10.022,8.152,18.175,18.173,18.175
		c10.022,0,18.175-8.154,18.175-18.175C83.113,37.81,74.96,29.656,64.938,29.656z M64.938,63.073
		c-8.404,0-15.242-6.838-15.242-15.244c0-8.404,6.838-15.241,15.242-15.241c8.406,0,15.242,6.838,15.242,15.241
		C80.18,56.235,73.344,63.073,64.938,63.073z"/>
	<path fill="none" d="M64.938,35.414c-6.846,0-12.416,5.569-12.416,12.415c0,6.848,5.57,12.418,12.416,12.418
		c6.848,0,12.416-5.57,12.416-12.418C77.354,40.984,71.785,35.414,64.938,35.414z M62.802,41.237c-2.952,0-5.353,2.402-5.353,5.353
		c0,0.739,0.149,1.458,0.444,2.135l-2.591,1.128c-0.451-1.036-0.679-2.135-0.679-3.263c0-4.51,3.669-8.179,8.18-8.18V41.237z"/>
	<path d="M22.227,32.587c-8.405,0-15.242,6.837-15.242,15.241c0,8.406,6.837,15.244,15.242,15.244S37.47,56.235,37.47,47.829
		C37.469,39.426,30.631,32.587,22.227,32.587z M22.227,60.246c-6.847,0-12.416-5.57-12.416-12.418
		c0-6.846,5.569-12.415,12.416-12.415s12.417,5.57,12.417,12.415C34.643,54.676,29.073,60.246,22.227,60.246z"/>
	<path d="M84.793,41.003c-0.015-0.046-0.024-0.094-0.044-0.139l-0.009-0.019c-0.423-1.195-0.952-2.337-1.572-3.421L69.908,8.575
		c-0.09-0.22-0.189-0.436-0.261-0.57c-0.011-0.025-0.027-0.063-0.041-0.089c-1.877-3.751-5.645-6.081-9.837-6.081
		c-5.728,0-10.435,4.299-10.939,9.928l-1.023,7.258c-1.553-0.247-3.012-0.37-4.43-0.371c-1.293,0-2.624,0.103-4.027,0.311
		l-1.005-7.127c-0.513-5.7-5.219-9.998-10.948-9.998c-4.191,0-7.96,2.33-9.844,6.097c-0.104,0.209-0.203,0.421-0.276,0.598
		L3.992,37.433c-0.617,1.079-1.143,2.216-1.563,3.404l-0.013,0.025c-0.028,0.062-0.042,0.127-0.061,0.191
		c-0.727,2.127-1.128,4.406-1.128,6.775c0,11.58,9.421,21.002,21,21.002c11.58,0,21.001-9.422,21.001-21.002
		c0-1.216-0.109-2.405-0.309-3.566l-0.938-6.64c0.475-0.029,0.941-0.046,1.401-0.046c0.585,0,1.184,0.031,1.796,0.079l-0.933,6.612
		c-0.199,1.159-0.308,2.348-0.308,3.562c0,11.58,9.421,21.002,21.001,21.002c11.58,0,21.002-9.422,21.002-21.002
		C85.94,45.439,85.532,43.144,84.793,41.003z M51.637,12.087c0.379-4.234,3.875-7.425,8.132-7.425c3.114,0,5.914,1.732,7.274,4.443
		c0.011,0.026,0.029,0.065,0.042,0.091c0.077,0.154,0.149,0.309,0.236,0.513l9.6,20.889c-3.4-2.371-7.531-3.768-11.983-3.768
		c-6.696,0-12.667,3.155-16.515,8.052L51.637,12.087z M19.862,9.669c0.069-0.163,0.141-0.322,0.225-0.49
		c1.393-2.787,4.194-4.519,7.308-4.519c4.256,0,7.753,3.192,8.142,7.495l3.203,22.724c-3.848-4.896-9.818-8.051-16.514-8.051
		c-4.452,0-8.58,1.396-11.982,3.769L19.862,9.669z M22.227,66.005c-10.021,0-18.173-8.154-18.173-18.175
		c0-10.02,8.153-18.173,18.173-18.173c10.022,0,18.174,8.153,18.174,18.173C40.401,57.851,32.248,66.005,22.227,66.005z
		 M43.383,34.75c-0.588,0-1.188,0.03-1.796,0.076L39.745,21.77c1.274-0.192,2.479-0.294,3.638-0.294
		c1.277,0.001,2.605,0.118,4.028,0.349l-1.838,13.032C44.828,34.793,44.096,34.75,43.383,34.75z M64.938,66.005
		c-10.022,0-18.173-8.154-18.173-18.175c0-10.02,8.152-18.173,18.173-18.173c10.022,0,18.175,8.153,18.175,18.173
		C83.113,57.851,74.96,66.005,64.938,66.005z"/>
	<path d="M64.938,32.587c-8.404,0-15.242,6.837-15.242,15.241c0,8.406,6.838,15.244,15.242,15.244
		c8.406,0,15.242-6.838,15.242-15.244C80.18,39.426,73.344,32.587,64.938,32.587z M64.938,60.246
		c-6.846,0-12.416-5.57-12.416-12.418c0-6.846,5.57-12.415,12.416-12.415c6.848,0,12.416,5.57,12.416,12.415
		C77.354,54.676,71.785,60.246,64.938,60.246z"/>
	<path d="M54.622,46.591c0,1.128,0.228,2.226,0.679,3.263l2.591-1.128c-0.295-0.677-0.444-1.396-0.444-2.135
		c0-2.952,2.402-5.353,5.353-5.353v-2.826C58.291,38.412,54.622,42.081,54.622,46.591z"/>
	<path d="M11.593,46.591c0,1.13,0.228,2.228,0.679,3.263l2.591-1.128c-0.295-0.676-0.444-1.394-0.444-2.135
		c0-2.952,2.401-5.353,5.352-5.353v-2.826C15.262,38.412,11.593,42.081,11.593,46.591z"/>
</g>
</svg>
