<?xml version="1.0" encoding="utf-8"?>
<!-- Generator: Adobe Illustrator 18.1.1, SVG Export Plug-In . SVG Version: 6.00 Build 0)  -->
<svg version="1.1" id="Слой_1" xmlns="http://www.w3.org/2000/svg" xmlns:xlink="http://www.w3.org/1999/xlink" x="0px" y="0px"
	 viewBox="0 0 287.404 113.06" enable-background="new 0 0 287.404 113.06" xml:space="preserve">
<g>
	<g>
		<path fill="#FFFFFF" d="M26.087,109.254l-0.165-72.989L8.773,44.132L0,23.405L34.439,6.089l15.875-0.037l0.233,103.147
			L26.087,109.254z M28.912,31.593l0.168,74.654l18.46-0.042L47.321,9.06L35.154,9.087L3.857,24.823l6.473,15.293L28.912,31.593z"/>
	</g>
	<g>
		<path fill="#FFFFFF" d="M107.71,110.071c-28.284,0-45.899-20.105-45.972-52.472C61.664,25.171,79.133,4.986,107.326,4.922h0.132
			c14.17,0,25.946,5.186,34.054,14.996c7.675,9.286,11.75,22.245,11.784,37.476c0.073,32.429-17.34,52.614-45.446,52.678H107.71z
			 M107.458,7.922h-0.125C80.99,7.981,64.668,27.015,64.738,57.594c0.07,30.981,16.134,49.478,42.972,49.478h0.133
			c26.255-0.06,42.521-19.093,42.453-49.672C150.227,26.881,133.812,7.922,107.458,7.922z M107.802,88.611
			C93.097,88.61,84.673,77.288,84.628,57.548c-0.022-9.903,2.004-17.665,6.022-23.068c3.928-5.282,9.711-8.082,16.724-8.098h0.071
			c10.442,0,22.901,5.389,22.959,31.063C130.452,78.091,122.847,88.576,107.802,88.611z M107.446,27.882l-0.064,1.5
			c-6.115,0.014-10.935,2.331-14.324,6.888c-3.624,4.872-5.451,12.029-5.43,21.272c0.04,17.838,7.371,28.068,20.112,28.069
			c13.292-0.03,19.707-9.242,19.665-28.16c-0.042-18.625-6.757-28.069-19.959-28.069V27.882z"/>
	</g>
	<g>
		<path fill="#FFFFFF" d="M195.819,113.06l-19.37-11.199L251.35,0l18.338,13.318L195.819,113.06z M180.85,100.94l14.152,8.182
			l70.473-95.155L252,4.18L180.85,100.94z M256.981,109.305c-17.565,0-30.34-11.793-30.376-28.042
			c-0.018-7.967,3.083-15.165,8.731-20.27c5.52-4.989,13.193-7.748,21.605-7.767c17.652,0,30.426,11.733,30.463,27.899
			c0.036,16.024-13.005,28.14-30.336,28.179H256.981z M257.029,56.227c-7.751,0.018-14.712,2.5-19.682,6.992
			c-5.081,4.592-7.758,10.83-7.742,18.038c0.033,14.514,11.546,25.048,27.376,25.048v1.5l0.08-1.5
			c15.876-0.036,27.375-10.623,27.343-25.173C284.371,66.701,272.858,56.227,257.029,56.227z M257.028,91.564
			c-4.686,0-9.521-3.872-9.535-10.35c-0.013-5.911,4.066-10.378,9.488-10.391h0.022c5.41,0,9.5,4.449,9.513,10.349
			C266.529,87.085,262.45,91.552,257.028,91.564z M257.003,72.324l-0.015,1.5c-3.236,0.008-6.506,2.546-6.495,7.385
			c0.011,4.777,3.365,7.355,6.516,7.355c3.248-0.008,6.518-2.547,6.507-7.386c-0.011-4.828-3.285-7.354-6.513-7.354V72.324z
			 M189.203,61.387c-17.281,0-30.341-11.993-30.377-27.898C158.789,17.201,171.547,5.35,189.162,5.31
			c17.651,0,30.426,11.793,30.463,28.042c0.018,7.857-3.082,15.018-8.727,20.158c-5.557,5.061-13.231,7.858-21.609,7.877H189.203z
			 M189.25,8.31c-15.957,0.036-27.457,10.623-27.423,25.173c0.033,14.431,11.546,24.904,27.377,24.904v1.5l0.079-1.5
			c7.632-0.018,14.591-2.537,19.596-7.095c5.011-4.564,7.763-10.934,7.747-17.935C216.592,18.844,205.079,8.31,189.25,8.31z
			 M189.249,43.79c-4.686,0-9.521-3.871-9.535-10.35c-0.013-5.911,4.066-10.378,9.488-10.391h0.021c5.411,0,9.5,4.449,9.514,10.349
			c0.007,2.997-0.938,5.594-2.734,7.508C194.266,42.761,191.867,43.784,189.249,43.79z M189.224,24.55l-0.015,1.5
			c-3.236,0.008-6.506,2.546-6.495,7.385c0.011,4.777,3.365,7.355,6.516,7.355c1.795-0.004,3.419-0.691,4.585-1.936
			c1.263-1.347,1.927-3.231,1.922-5.45c-0.011-4.828-3.285-7.354-6.514-7.354V24.55z"/>
	</g>
</g>
</svg>
