<?xml version="1.0" encoding="utf-8"?>
<!-- Generator: Adobe Illustrator 18.1.1, SVG Export Plug-In . SVG Version: 6.00 Build 0)  -->
<svg version="1.1" id="Слой_1" xmlns="http://www.w3.org/2000/svg" xmlns:xlink="http://www.w3.org/1999/xlink" x="0px" y="0px"
	 viewBox="0 0 507.825 99.084" enable-background="new 0 0 507.825 99.084" xml:space="preserve">
<g>
	<path fill="none" stroke="#000000" stroke-width="2" stroke-miterlimit="10" d="M32.558,1.952h13.325v95.179H25.488V26.971
		l-16.996,7.75L1.285,17.589L32.558,1.952z"/>
	<path fill="none" stroke="#000000" stroke-width="2" stroke-miterlimit="10" d="M86.675,1.952H100v95.179H79.604V26.971
		l-16.996,7.75l-7.207-17.132L86.675,1.952z"/>
	<path fill="none" stroke="#000000" stroke-width="2" stroke-miterlimit="10" d="M155.613,1c27.33,0,42.151,20.532,42.151,48.542
		c0,28.146-14.549,48.542-41.879,48.542c-28.01,0-42.287-20.396-42.287-48.542C113.598,21.532,127.875,1,155.613,1z M155.885,77.688
		c13.597,0,20.124-9.383,20.124-28.146c0-18.9-7.07-28.146-20.396-28.146c-12.374,0-20.26,9.519-20.26,28.146
		C135.353,68.305,143.511,77.688,155.885,77.688z"/>
	<path fill="none" stroke="#000000" stroke-width="2" stroke-miterlimit="10" d="M280.026,1c27.33,0,42.15,20.532,42.15,48.542
		c0,28.146-14.549,48.542-41.878,48.542c-28.01,0-42.287-20.396-42.287-48.542C238.011,21.532,252.288,1,280.026,1z M280.298,77.688
		c13.597,0,20.124-9.383,20.124-28.146c0-18.9-7.07-28.146-20.396-28.146c-12.374,0-20.26,9.519-20.26,28.146
		C259.766,68.305,267.925,77.688,280.298,77.688z"/>
	<path fill="none" stroke="#000000" stroke-width="2" stroke-miterlimit="10" d="M372.35,1c27.33,0,42.15,20.532,42.15,48.542
		c0,28.146-14.549,48.542-41.879,48.542c-28.01,0-42.287-20.396-42.287-48.542C330.335,21.532,344.612,1,372.35,1z M372.622,77.688
		c13.598,0,20.124-9.383,20.124-28.146c0-18.9-7.07-28.146-20.396-28.146c-12.373,0-20.26,9.519-20.26,28.146
		C352.091,68.305,360.249,77.688,372.622,77.688z"/>
	<path fill="none" stroke="#000000" stroke-width="2" stroke-miterlimit="10" d="M464.675,1c27.33,0,42.15,20.532,42.15,48.542
		c0,28.146-14.549,48.542-41.879,48.542c-28.01,0-42.287-20.396-42.287-48.542C422.659,21.532,436.936,1,464.675,1z M464.946,77.688
		c13.598,0,20.124-9.383,20.124-28.146c0-18.9-7.07-28.146-20.396-28.146c-12.373,0-20.26,9.519-20.26,28.146
		C444.415,68.305,452.573,77.688,464.946,77.688z"/>
</g>
</svg>
