<?xml version="1.0" encoding="utf-8"?>
<!-- Generator: Adobe Illustrator 18.1.1, SVG Export Plug-In . SVG Version: 6.00 Build 0)  -->
<svg version="1.1" id="Слой_1" xmlns="http://www.w3.org/2000/svg" xmlns:xlink="http://www.w3.org/1999/xlink" x="0px" y="0px"
	 viewBox="0 0 185.948 131.131" enable-background="new 0 0 185.948 131.131" xml:space="preserve">
<path fill="none" d="M124.536-94.771"/>
<path fill="none" d="M124.536,684.854"/>
<g>
	<path fill="none" stroke="#000000" stroke-width="2" stroke-miterlimit="10" d="M43.234,1h17.874v127.672H33.751V34.56
		L10.952,44.956L1.285,21.975L43.234,1z"/>
	<path fill="none" stroke="#000000" stroke-width="2" stroke-miterlimit="10" d="M92.295,1h85.357v26.446H116.37l-2.371,19.698
		c4.377-2.189,13.861-3.648,26.081-3.648c29,0,44.868,17.327,44.868,42.679c0,26.629-19.516,43.956-51.616,43.956
		c-24.987,0-43.591-7.66-55.811-32.647l25.534-11.308c4.194,9.849,16.05,16.598,29.547,16.598c14.773,0,23.163-6.384,23.163-16.05
		c0-10.943-8.025-17.692-23.528-17.692c-13.132,0-19.333,2.736-27.54,7.843L85.546,65.565L92.295,1z"/>
</g>
</svg>
