<?xml version="1.0" encoding="utf-8"?>
<!-- Generator: Adobe Illustrator 18.1.1, SVG Export Plug-In . SVG Version: 6.00 Build 0)  -->
<svg version="1.1" id="Слой_1" xmlns="http://www.w3.org/2000/svg" xmlns:xlink="http://www.w3.org/1999/xlink" x="0px" y="0px"
	 viewBox="0 0 339.401 283.771" enable-background="new 0 0 339.401 283.771" xml:space="preserve">
<path fill="#1B3C6B" d="M339.401,283.771V17.048l-2.425,1.157c0.325-0.282,0.468-0.769,0.708-1.157
	c-0.516-0.096-1.041-0.27-1.556-0.27c-0.934-0.002-1.871,0.099-2.805,0.158c-2.52-0.603-4.409,1.408-6.75,1.526
	c-3.622,0.183-7.176,0.432-10.868-0.276c-2.778-0.533-5.509-0.685-8.129-2.053c-2.257-1.179-4.432-2.17-6.326-4.062
	c-1.447-1.446-3.958-1.864-5.996-2.739c-1.571,2.043-4.409,0.522-5.995,1.821c-2.284,1.872-3.661,0.634-5.149-0.812
	c-0.989-0.961-2.004-1.463-3.449-1.238c-1.473,0.23-2.991,0.336-4.482,0.277c-1.582-0.062-3.132,0.728-4.81-0.483
	c-0.998-0.721-2.743-0.407-4.142-0.63c-1.555-0.248-3.431-0.142-4.564-0.98c-1.551-1.147-2.051,1.209-3.669,0.329
	c-2.295-1.249-5.202,0.371-7.895-0.976c-2.303-1.152-4.67,2.046-7.306,0.619c-2.913,1.512-5.77,2.134-8.482-0.5
	c-0.215-0.209-0.66-0.273-0.993-0.266c-4.364,0.096-8.69,1.022-11.96,3.693c-2.017,1.647-3.992,2.013-6.045,1.773
	c-7.214-0.845-8.358-0.893-12.743,0.86c-0.328,0.131-0.767-0.012-1.112,0.097c-1.325,0.42-2.612,1.177-3.953,1.261
	c-1.341,0.084-2.721-0.577-4.103-0.74c-0.916-0.108-1.991,0.381-2.768,0.061c-0.802-0.33-1.328-1.316-1.975-2.014
	c-0.351,2.029-2.036,1.469-2.932,1.001c-2.997-1.566-5.856-2.759-8.883-0.265c-2.657-1.596-5.671-0.202-8.42-1.042
	c-0.663-0.203-1.528-0.699-1.985-0.468c-2.731,1.383-5.231,0.846-7.703-0.617c-2.883,1.668-6.692,0.815-9.3,3.178
	c-1.831,1.659-3.998,2.246-6.416,2.161c-1.637-0.058-2.988-1.894-5.002-0.284c-1.093,0.873-3.118,0.597-4.708,0.906
	c-1.755,0.341-3.748-0.469-5.272,0.992c-0.133,0.127-0.341,0.405-0.355,0.394c-3.405-2.406-5.12,0.506-7.206,2.165
	c-1.004,0.798-1.547,1.102-2.426-0.395c-0.57-0.971-2.226-1.295-3.321-2.019c-1.92-1.27-4.701-0.426-6.295-2.617
	c-0.262-0.36-1.654-0.449-2.037-0.119c-1.851,1.591-4.104,1.162-6.221,1.46c-0.859,0.12-1.723,0.379-2.514,0.726
	c-1.257,0.552-2.479,1.76-3.671,1.698c-1.036-0.054-1.984-1.515-3.015-2.298c-3.192-2.423-6.369-4.87-9.643-7.183
	c-0.642-0.454-1.774-0.644-2.542-0.448c-3.676,0.94-7.201-0.91-10.839-0.534c-0.591,0.061-1.438-0.382-1.855-0.856
	c-1.012-1.149-2.2-1.054-3.534-1.001c-4.242,0.167-4.554-0.158-8.813-3.11c-2.049-1.42-4.469-0.689-6.663,0.183
	c-0.478,0.19-0.956,0.407-1.383,0.687c-1.159,0.759-2.291,1.559-3.434,2.342c-1.79-1.992-4.122-0.329-6.193-0.936
	c-4.024-1.179-7.834-0.781-10.843,1.14c-1.345,0.859-2.457,1.853-3.803,0.594c-1.474-1.378-2.195,0.866-3.085,0.426
	c-1.137-0.562-1.958-1.715-3.026-2.458c-1.001-0.697-2.275-1.041-3.202-1.806c-2.2-1.816-4.797-2.554-7.679-2.364
	C3.728,0.828,1.978,0.261,0,0v283.771"/>
<path fill="#1B3C6B" d="M72.284,179.978"/>
</svg>
